<svg width="37" height="38" viewBox="0 0 37 38" fill="none" xmlns="http://www.w3.org/2000/svg">
<rect width="37" height="38" rx="8" fill="white" fill-opacity="0.25"/>
<path d="M12.9444 9.60526V17.3421L18.5 14.5789L24.0556 17.3421V9.60526H27.3889C27.6836 9.60526 27.9662 9.72171 28.1746 9.92899C28.3829 10.1363 28.5 10.4174 28.5 10.7105V28.3947C28.5 28.6879 28.3829 28.969 28.1746 29.1763C27.9662 29.3836 27.6836 29.5 27.3889 29.5H9.61111C9.31643 29.5 9.03381 29.3836 8.82544 29.1763C8.61706 28.969 8.5 28.6879 8.5 28.3947V10.7105C8.5 10.4174 8.61706 10.1363 8.82544 9.92899C9.03381 9.72171 9.31643 9.60526 9.61111 9.60526H12.9444ZM18.5 14.0263L13.5 8.5H23.5L18.5 14.0263ZM19.6111 17.6029L18.5 17.0503L17.3889 17.6029V27.2895H19.6111V17.6029ZM21.8333 20.6579V22.8684H26.2778V20.6579H21.8333Z" fill="white"/>
</svg>
