<svg width="37" height="38" viewBox="0 0 37 38" fill="none" xmlns="http://www.w3.org/2000/svg">
<rect width="37" height="38" rx="8" fill="white" fill-opacity="0.25"/>
<path d="M18.4997 30C16.9968 29.9999 15.5286 29.5378 14.2854 28.6736C13.0423 27.8094 12.0815 26.583 11.5277 25.1534C10.974 23.7238 10.8527 22.1569 11.1797 20.656C11.5066 19.155 12.2667 17.7892 13.3615 16.7355C14.7035 15.4432 17.9997 13.1163 17.4996 8C23.4999 12.093 26.5 16.186 20.4998 22.3256C21.4998 22.3256 22.9999 22.3256 25.5 19.7981C25.77 20.5891 26 21.4394 26 22.3256C26 24.361 25.2098 26.313 23.8032 27.7522C22.3966 29.1914 20.4889 30 18.4997 30Z" fill="white"/>
</svg>
