<svg width="37" height="38" viewBox="0 0 37 38" fill="none" xmlns="http://www.w3.org/2000/svg">
<rect width="37" height="38" rx="8" fill="white" fill-opacity="0.25"/>
<path d="M28.4979 27V29H8.4999V27H9.4998V20.242C8.88423 19.8311 8.37962 19.2745 8.03077 18.6218C7.68191 17.969 7.49959 17.2402 7.5 16.5C7.5 15.673 7.72398 14.876 8.13294 14.197L10.8447 9.5C10.9324 9.34798 11.0586 9.22175 11.2106 9.13398C11.3626 9.04621 11.5351 9 11.7106 9H25.2882C25.4637 9 25.6361 9.04621 25.7881 9.13398C25.9401 9.22175 26.0664 9.34798 26.1541 9.5L28.8558 14.182C29.4523 15.1729 29.6441 16.3555 29.3912 17.4841C29.1383 18.6127 28.4602 19.6005 27.498 20.242V27H28.4979ZM12.2885 11L9.85576 15.213C9.61936 15.7971 9.61227 16.449 9.8359 17.0382C10.0595 17.6273 10.4974 18.1103 11.0618 18.3904C11.6263 18.6705 12.2757 18.7271 12.88 18.5488C13.4844 18.3706 13.9992 17.9706 14.3213 17.429C14.6563 16.592 15.8412 16.592 16.1771 17.429C16.3624 17.8934 16.6827 18.2916 17.0966 18.5721C17.5104 18.8526 17.9989 19.0025 18.4989 19.0025C18.9989 19.0025 19.4873 18.8526 19.9012 18.5721C20.3151 18.2916 20.6354 17.8934 20.8207 17.429C21.1556 16.592 22.3405 16.592 22.6765 17.429C22.8062 17.7484 23.0007 18.0376 23.2475 18.2783C23.4944 18.519 23.7884 18.706 24.111 18.8275C24.4337 18.9491 24.778 19.0026 25.1223 18.9847C25.4666 18.9668 25.8034 18.8778 26.1117 18.7234C26.42 18.569 26.693 18.3525 26.9136 18.0875C27.1342 17.8225 27.2975 17.5148 27.3935 17.1836C27.4894 16.8524 27.5157 16.5049 27.4709 16.1631C27.4261 15.8212 27.3111 15.4923 27.133 15.197L24.7083 11H12.2895H12.2885Z" fill="white"/>
</svg>
