<svg width="37" height="38" viewBox="0 0 37 38" fill="none" xmlns="http://www.w3.org/2000/svg">
<rect width="37" height="38" rx="8" fill="white" fill-opacity="0.25"/>
<path d="M24.2832 23.3911L28.5 27.6069L27.1069 29L22.8911 24.7832C21.3224 26.0407 19.3713 26.7246 17.3609 26.7218C12.4697 26.7218 8.5 22.7521 8.5 17.8609C8.5 12.9697 12.4697 9 17.3609 9C22.2521 9 26.2218 12.9697 26.2218 17.8609C26.2246 19.8713 25.5407 21.8224 24.2832 23.3911ZM22.3082 22.6605C23.5577 21.3756 24.2555 19.6532 24.2527 17.8609C24.2527 14.0527 21.1681 10.9691 17.3609 10.9691C13.5527 10.9691 10.4691 14.0527 10.4691 17.8609C10.4691 21.6681 13.5527 24.7527 17.3609 24.7527C19.1532 24.7555 20.8756 24.0577 22.1605 22.8082L22.3082 22.6605Z" fill="white"/>
</svg>
